<?xml version="1.0" encoding="UTF-8" standalone="no"?>
<svg
   version="1.1"
   id="Layer_1"
   x="0px"
   y="0px"
   width="100%"
   viewBox="0 0 225 225"
   enable-background="new 0 0 225 225"
   xml:space="preserve"
   sodipodi:docname="jooay.svg"
   inkscape:version="1.3.2 (091e20e, 2023-11-25)"
   xmlns:inkscape="http://www.inkscape.org/namespaces/inkscape"
   xmlns:sodipodi="http://sodipodi.sourceforge.net/DTD/sodipodi-0.dtd"
   xmlns="http://www.w3.org/2000/svg"
   xmlns:svg="http://www.w3.org/2000/svg"><defs
   id="defs21" /><sodipodi:namedview
   id="namedview21"
   pagecolor="#ffffff"
   bordercolor="#000000"
   borderopacity="0.25"
   inkscape:showpageshadow="2"
   inkscape:pageopacity="0.0"
   inkscape:pagecheckerboard="0"
   inkscape:deskcolor="#d1d1d1"
   inkscape:zoom="8.3911112"
   inkscape:cx="60.361493"
   inkscape:cy="146.0474"
   inkscape:window-width="1512"
   inkscape:window-height="916"
   inkscape:window-x="0"
   inkscape:window-y="38"
   inkscape:window-maximized="1"
   inkscape:current-layer="Layer_1" />

<path
   fill="#fcfefe"
   opacity="1"
   stroke="none"
   d="m 170.70093,21.278439 c 26.63472,24.469914 34.59439,65.999249 17.70571,100.108661 -7.78345,15.71992 -18.46042,30.0755 -28.46439,44.60988 -11.79434,17.13564 -24.35595,33.7413 -36.43938,50.68054 -7.46679,10.46735 -16.05099,10.54053 -23.715201,-10e-4 C 82.86685,193.40153 65.678289,170.31702 49.06113,146.82806 37.511536,130.50231 28.115896,112.98497 26.717102,92.466641 23.105977,39.496613 53.302467,5.833125 103.96262,1.3348882 c 20.36246,-1.80803298 39.37034,3.2547159 57.33718,12.4775828 3.37002,1.729916 6.06396,4.77689 9.40113,7.465968 m 2.00681,78.980051 c 1.46384,-9.816676 3.05196,-19.636876 -0.6736,-30.139637 -1.55407,-3.816106 -3.10812,-7.632202 -4.81371,-12.273333 -2.73536,-4.045487 -5.47073,-8.090979 -8.53538,-12.833181 -14.45236,-15.591427 -32.19341,-22.340128 -53.42338,-20.357775 -38.713382,3.61487 -65.055595,45.071228 -51.703775,81.553006 4.624839,12.63665 11.898193,23.35038 22.540259,32.56436 2.442689,6.59365 7.899737,8.83731 15.055831,6.02913 19.950345,5.58262 38.412095,4.53841 56.261055,-8.15653 12.97458,-9.2281 21.18423,-20.4836 25.2927,-36.38604 z"
   id="path2"
   style="stroke-width:1.16895" />




<path
   fill="#f7fbfc"
   opacity="1"
   stroke="none"
   d="m 148.2777,74.859842 c -5.43365,5.092249 -10.75554,5.318687 -16.89135,0.691836 -3.79092,-2.858634 -4.96422,-1.846957 -10.80916,6.669917 6.76966,0 13.22574,0 20.25016,-0.045 0.56837,-0.04499 0.49681,0.01939 0.49681,0.01939 4.75538,2.405777 3.71425,6.724453 3.49012,10.73258 -0.12979,2.320801 -0.44247,4.631365 -0.66366,7.430965 -0.40569,4.08938 -0.82061,7.69432 -1.33939,12.2381 -1.38666,4.42686 -2.66947,7.91487 -3.95226,11.40288 0,0 0.1006,0.0505 -0.34362,0.002 -1.68223,-0.006 -2.92031,0.0353 -4.15836,0.077 0,1e-5 -0.26642,-0.14624 -0.68416,-0.41365 -1.13238,-0.66039 -1.84704,-1.05336 -2.56168,-1.44635 0,0 0.11559,-0.059 0.003,-0.67675 0.30178,-8.10062 0.79668,-15.58072 1.0528,-23.068984 0.0441,-1.289265 -0.63658,-2.899162 -1.53768,-3.814217 -0.54276,-0.551175 -2.80787,-0.465344 -3.15508,0.07259 -0.70147,1.086787 -0.89736,2.693554 -0.8143,4.056158 0.23303,3.822503 0.71377,7.629893 1.09678,11.443253 -2.26097,5.80701 -4.52194,11.61403 -6.87528,17.65831 -8.75224,-5.33612 -9.42378,-7.12628 -6.13611,-13.89391 3.48136,-7.16639 2.49233,-13.92139 -2.89891,-19.799343 -4.88641,-5.327519 -14.026524,-8.031999 -20.278433,-4.49907 -6.590632,3.724336 -9.804282,0.977154 -13.506303,-5.400711 5.612666,-2.795875 11.664571,-4.874988 16.558849,-8.511931 4.885594,-3.630505 8.611747,-8.821286 12.822787,-13.303116 -5.85253,-6.059781 -6.48345,-6.089996 -12.055839,-1.275948 -1.906095,1.646696 -3.721142,3.895463 -5.955945,4.523453 -2.178087,0.61207 -5.818243,0.337034 -7.021862,-1.076577 -1.280015,-1.503331 -1.559634,-5.859447 -0.348085,-7.126762 4.53954,-4.748503 9.656127,-9.044058 15.03753,-12.824521 1.474298,-1.035712 4.978571,-0.343688 6.946521,0.698009 6.49857,3.439923 12.72048,7.402535 19.59804,11.584443 2.99463,1.932137 5.43983,3.444333 8.25306,5.064638 3.60089,0.963331 6.36851,6.051245 10.58041,1.001511 3.53869,-2.681106 6.72649,-5.171634 9.91429,-7.662151 0.32207,0.142641 0.65826,0.195714 1.25992,0.105771 6.81106,4.147069 7.1185,7.161052 1.51163,12.535579 -1.39284,1.335121 -2.83355,2.620297 -4.79023,4.341114 -1.05704,1.104937 -1.57614,1.797184 -2.09523,2.489431 z"
   id="path7"
   style="stroke-width:1.16895" />
<path
   fill="#f3fafa"
   opacity="1"
   stroke="none"
   d="m 108.07012,123.72971 c 2.80466,2.16412 5.16811,4.30475 7.56069,6.47172 -9.95156,9.55324 -27.41304,8.67604 -38.264056,-1.28752 -11.343822,-10.41604 -12.619251,-27.43608 -2.9601,-39.501138 6.890994,3.550794 7.523791,4.99561 5.379797,12.283248 -2.79345,9.49519 2.431702,20.79983 11.818663,22.9436 5.00897,1.14395 10.661656,-0.53083 16.465006,-0.90991 z"
   id="path8"
   style="stroke-width:1.16895" />
<path
   fill="#f1fbfb"
   opacity="1"
   stroke="none"
   d="m 131.52889,61.940477 c -2.4452,-1.512197 -4.89041,-3.024392 -7.4599,-4.894083 -0.35652,-1.819496 -0.3635,-3.36322 -0.85924,-4.729627 -2.39717,-6.607553 1.9328,-9.64201 6.36061,-12.989913 4.07452,-3.080774 6.88659,-0.570271 10.47697,1.97586 1.1471,1.160125 1.80321,1.776417 2.45933,2.39271 0,0 -0.006,-0.08308 0.0101,0.33206 0.33927,1.131411 0.66257,1.847683 0.98584,2.56396 0,0 -0.16151,0.02832 -0.21918,0.570963 -1.3286,3.578016 -2.59954,6.613394 -4.21916,9.822388 -2.74403,1.767638 -5.13938,3.36166 -7.53476,4.955682 z"
   id="path9"
   style="stroke-width:1.16895" />



<path
   fill="#6bc8d8"
   opacity="1"
   stroke="none"
   d="m 134.64515,124.33665 c 0.94989,-0.29893 2.18797,-0.34081 3.89174,-0.38613 -0.89072,0.21208 -2.24716,0.42763 -3.89174,0.38613 z"
   id="path13"
   style="stroke-width:1.16895" />
<path
   fill="#58c3d7"
   opacity="1"
   stroke="none"
   d="m 142.42738,43.341617 c -0.57684,-0.262486 -1.23295,-0.878778 -2.02705,-1.807386 0.55728,0.276315 1.25253,0.864947 2.02705,1.807386 z"
   id="path14"
   style="stroke-width:1.16895" />
<path
   fill="#58c3d7"
   opacity="1"
   stroke="none"
   d="m 148.13167,49.849802 c -0.16797,0.193459 -0.37417,0.240485 -0.58038,0.287512 0.18071,-0.144647 0.36142,-0.289291 0.58038,-0.287512 z"
   id="path15"
   style="stroke-width:1.16895" />
<path
   fill="#58c3d7"
   opacity="1"
   stroke="none"
   d="m 143.60768,46.268969 c -0.42897,-0.393802 -0.75226,-1.110074 -1.1276,-2.220608 0.37641,0.369873 0.80486,1.134002 1.1276,2.220608 z"
   id="path16"
   style="stroke-width:1.16895" />
<path
   fill="#6bc8d8"
   opacity="1"
   stroke="none"
   d="m 131.32131,122.59561 c 0.50448,0.017 1.21914,0.40993 2.20582,1.11356 -0.48384,-0.0388 -1.23976,-0.38815 -2.20582,-1.11356 z"
   id="path17"
   style="stroke-width:1.16895" />




<path
   style="fill:#000000;stroke-width:1.11447"
   d="M 106.05021,221.97435 C 102.55645,219.61255 73.447535,180.87052 50.442838,147.96467 34.515392,125.1821 28.30434,109.69912 27.186295,89.990583 25.670662,63.27348 33.498655,40.39966 49.498044,24.794427 75.193634,-0.26813137 119.95396,-5.5496663 156.81528,12.131434 c 6.21518,2.981204 9.84243,5.824123 16.77416,13.147029 15.51687,16.392483 22.79473,34.991239 22.75173,58.142499 -0.0395,21.248228 -5.31982,35.856328 -22.02364,60.928478 -13.32449,19.99982 -48.39419,68.76634 -53.29392,74.10839 -5.62576,6.13364 -9.69004,7.08814 -14.9734,3.51652 z m 19.87361,-75.07043 c 16.32036,-3.84704 34.1339,-17.37703 41.10631,-31.22164 8.14059,-16.164182 9.6811,-33.400199 4.32136,-48.349654 -9.54736,-26.629645 -32.32142,-43.510368 -58.68638,-43.499892 -16.594244,0.0065 -30.810561,5.52963 -42.577099,16.541198 -26.503177,24.802663 -27.07597,63.968158 -1.336718,91.400148 3.803528,4.05366 8.135327,8.82806 9.626217,10.60978 2.44105,2.91722 3.47756,3.27373 10.41926,3.58387 4.2397,0.18942 9.965343,0.80031 12.72365,1.35751 7.7773,1.57113 16.59679,1.41886 24.4034,-0.42132 z"
   id="path22" /><path
   style="fill:#000000;stroke-width:1.11447"
   d="m 115.98049,123.51199 c -2.48482,-2.64496 -2.55868,-3.10182 -1.21615,-7.52265 3.50955,-11.55669 2.53629,-17.408084 -3.82435,-22.992796 -5.60179,-4.918433 -11.713933,-6.274627 -18.409178,-4.084723 -2.948028,0.964252 -6.056045,1.753184 -6.9067,1.753184 -1.592134,0 -7.142559,-5.24929 -6.304577,-5.962528 0.257816,-0.219435 4.113893,-2.294402 8.569059,-4.611038 5.544264,-2.882952 10.055497,-6.35758 14.296496,-11.011398 l 6.19619,-6.799334 -2.93533,-2.524874 c -3.94445,-3.392868 -5.39891,-3.201672 -10.465582,1.375763 -5.622472,5.079565 -11.752791,5.540104 -12.900036,0.969113 -0.549825,-2.190675 -0.08748,-3.636592 1.829501,-5.72146 4.943028,-5.375946 13.376897,-11.407442 15.951069,-11.407442 1.429018,0 7.025978,2.562778 12.437688,5.695062 5.41171,3.132283 10.84251,6.140687 12.06843,6.685343 1.22592,0.544654 4.66588,2.746226 7.64436,4.892385 2.97847,2.146158 5.80182,3.902107 6.2741,3.902107 0.47227,0 3.76499,-2.2568 7.31714,-5.015108 7.21693,-5.604055 8.27305,-5.892212 10.91126,-2.977034 2.93504,3.243196 2.2281,5.315226 -4.00653,11.742995 -8.90845,9.184418 -11.76991,10.132179 -18.95842,6.279361 -2.2873,-1.225915 -4.88728,-2.228937 -5.77775,-2.228937 -1.49265,0 -7.30479,6.51255 -7.30479,8.185091 0,0.40186 5.02751,0.730656 11.17226,0.730656 13.62692,0 13.51001,-0.161129 12.08289,16.653984 -1.21333,14.296028 -3.75815,23.062798 -6.93592,23.893808 -4.63307,1.21158 -5.42091,-1.07376 -4.58715,-13.30621 0.90215,-13.235818 0.27126,-16.376433 -3.19069,-15.883252 -2.24316,0.31956 -2.41182,0.967039 -2.41182,9.259342 0,6.90105 -0.6283,10.4897 -2.7805,15.88116 -1.52927,3.83099 -3.32252,6.96544 -3.98498,6.96544 -0.66248,0 -2.39497,-1.2672 -3.84999,-2.81601 z"
   id="path23" /><path
   style="fill:#000000;stroke-width:0.394025"
   d="m 129.24908,60.038348 c -1.30027,-0.877773 -3.02906,-1.944677 -3.84173,-2.370899 -1.1543,-0.605393 -1.47862,-1.010276 -1.48226,-1.850505 -0.002,-0.591558 -0.26645,-2.050768 -0.58635,-3.242692 -1.29242,-4.81501 -0.53262,-7.228998 3.3936,-10.782025 2.62819,-2.37838 5.13166,-3.796863 6.70103,-3.796863 2.71679,0 8.33873,4.335324 9.34264,7.204513 0.4955,1.416132 0.43596,1.710822 -1.18325,5.856515 -0.93776,2.400943 -2.15478,4.832858 -2.70448,5.404255 -1.08056,1.12322 -6.57016,5.17696 -7.00788,5.174904 -0.14696,-6.9e-4 -1.33103,-0.719431 -2.63132,-1.597203 z"
   id="path24" /><path
   style="fill:#000000;stroke-width:0.394025"
   d="m 93.802255,136.48015 c -13.553954,-2.10762 -23.425663,-11.81482 -25.433187,-25.00938 -1.04351,-6.8585 1.196301,-15.770315 5.227758,-20.800312 l 0.888993,-1.109186 1.846505,1.032031 c 1.015576,0.567617 2.388368,1.64918 3.050647,2.403474 1.017806,1.15922 1.202708,1.689433 1.19487,3.426361 -0.0052,1.130202 -0.359723,3.372755 -0.788048,4.983442 -2.69322,10.12769 2.277026,20.52868 11.014957,23.05045 2.735228,0.78939 5.984181,0.78093 12.07611,-0.0315 l 4.86756,-0.64912 2.0818,1.62091 c 1.14499,0.89152 2.8797,2.3325 3.85492,3.2022 l 1.77309,1.58129 -1.37908,1.19361 c -1.8129,1.56909 -6.32144,3.78724 -9.16668,4.50986 -3.026,0.76855 -8.211152,1.04664 -11.110215,0.59584 z"
   id="path25" /><path
   style="fill:#2b0000;stroke-width:0.394025"
   d="m 109.17066,223.33298 c -2.50497,-0.78463 -5.08207,-3.38442 -11.683467,-11.7864 C 84.030592,194.41959 58.085603,158.91256 47.69014,143.39679 36.420326,126.57601 31.187288,114.77369 28.472428,100.05415 27.699006,95.860789 27.600285,94.010837 27.599805,83.702151 27.599325,73.387547 27.698335,71.531072 28.478907,67.218287 33.252367,40.844171 46.847899,22.353484 69.689146,11.170029 82.248425,5.0207982 95.669389,2.0748077 111.12398,2.0748077 c 13.46145,0 25.61677,2.2339693 37.8263,6.9519239 10.30133,3.9805944 15.72506,7.4846914 22.66604,14.6437974 16.53009,17.049575 23.7004,33.781536 24.31271,56.733885 0.654,24.514836 -4.69584,38.815246 -26.36635,70.478836 -11.0875,16.20039 -29.53214,42.01217 -41.10812,57.5275 -10.37726,13.90871 -13.87602,16.61611 -19.2839,14.92223 z m 14.68021,-75.84874 c 12.18619,-2.32487 25.24374,-9.84606 34.99765,-20.15879 3.96349,-4.19058 6.79307,-8.30001 9.21619,-13.3848 7.69361,-16.144681 8.67394,-33.382784 2.75817,-48.499235 C 162.34699,43.783143 145.81215,29.30339 124.32378,24.721628 119.52651,23.698754 105.1681,23.70259 100.1056,24.728028 87.602275,27.260816 77.585108,32.6818 68.348474,41.914 53.086923,57.168235 46.859414,77.216903 50.852867,98.23888 c 1.72889,9.10106 6.673597,19.95857 12.546711,27.54986 3.765576,4.86718 16.33081,18.53727 17.680668,19.23531 0.729544,0.37726 3.679818,0.79601 8.108803,1.1509 3.829106,0.3068 9.35571,0.91219 12.281341,1.34528 2.92563,0.4331 6.11722,0.85835 7.09242,0.94503 3.35247,0.29791 11.23546,-0.20797 15.28806,-0.98112 z"
   id="path1" /><path
   style="fill:#2b0000;stroke-width:0.394025"
   d="m 108.2797,222.75728 c -0.91423,-0.45254 -2.70705,-1.93971 -3.98407,-3.30486 C 98.084774,212.813 72.157013,178.16313 53.863695,152.05518 38.191523,129.68809 32.321472,117.81046 28.869713,101.48163 28.050632,97.606902 27.984905,96.286183 27.984905,83.702151 c 0,-12.783834 0.05586,-13.863826 0.937496,-18.125105 C 32.48073,48.378254 39.203697,35.500472 50.110117,24.992155 62.065147,13.473508 77.937495,5.9655171 95.910088,3.3277001 c 20.358822,-2.98804002 42.043302,0.222169 59.738602,8.8438089 6.51348,3.173545 10.23441,5.971064 16.38294,12.317225 14.24771,14.705664 21.31703,29.399013 23.23178,48.286515 0.71911,7.093454 0.30614,21.758362 -0.77373,27.475911 -1.71062,9.05717 -5.99516,19.73689 -12.28803,30.62931 -6.36274,11.01338 -25.17899,38.27858 -46.97902,68.07372 -12.64154,17.27777 -16.59697,21.92102 -20.27013,23.79493 -2.07372,1.05793 -4.54591,1.06097 -6.6728,0.009 z m 10.19048,-74.45202 c 14.57683,-1.46777 28.30334,-8.48514 39.76902,-20.33103 5.60248,-5.78829 8.58105,-10.3747 11.57389,-17.82155 1.93946,-4.8258 3.00352,-8.43093 4.02727,-13.644747 0.98741,-5.028721 0.97743,-16.439216 -0.0184,-21.080286 -4.6967,-21.88828 -19.58277,-40.053592 -39.05193,-47.654583 -8.42533,-3.289355 -14.22937,-4.176637 -25.22218,-3.855797 -7.83307,0.228618 -11.137922,0.772681 -17.471108,2.876178 -10.08839,3.350734 -19.282475,9.666487 -27.116594,18.62734 -11.116838,12.715708 -16.660809,29.349814 -15.172745,45.524241 0.820603,8.919512 2.413746,14.676054 6.337638,22.899964 4.051354,8.49105 7.298447,12.82897 19.076267,25.48477 6.240522,6.70571 5.042969,6.16583 16.024371,7.22429 3.575768,0.34467 8.806441,0.95247 11.623711,1.35068 6.06087,0.85669 10.06953,0.95946 15.62069,0.40053 z"
   id="path3" /><path
   style="fill:#2b0000;stroke-width:0.394025"
   d="m 117.75586,124.74667 c -1.09839,-0.86825 -2.40984,-2.24647 -2.91431,-3.06272 l -0.91722,-1.48409 1.358,-5.14755 c 1.17083,-4.43815 1.35798,-5.77204 1.35798,-9.67883 0,-4.12699 -0.0975,-4.73909 -1.09082,-6.860432 -1.4312,-3.055828 -5.60732,-7.129898 -9.00413,-8.784086 -4.91045,-2.391312 -8.965363,-2.587544 -15.112873,-0.731361 -5.363628,1.619495 -5.917269,1.648605 -7.711093,0.405488 -2.069286,-1.434019 -4.477533,-4.123695 -4.057699,-4.531888 0.182811,-0.17774 2.726079,-1.596624 5.651707,-3.153071 9.23273,-4.911856 12.004749,-7.065123 19.456018,-15.113205 4.47214,-4.830338 4.46439,-4.294902 0.10965,-7.568397 -3.69976,-2.781155 -4.74675,-2.53638 -10.953341,2.56079 -2.728242,2.240567 -5.18874,3.329134 -7.54256,3.336959 -2.456783,0.0082 -3.83043,-1.246028 -4.100172,-3.743625 -0.155417,-1.439041 0.0093,-2.012914 1.00602,-3.502999 2.04176,-3.052687 9.588896,-9.269269 13.887666,-11.439278 1.704131,-0.86025 2.615605,-1.103372 3.407557,-0.908925 1.96652,0.482837 6.71847,2.811694 13.79618,6.7613 3.84238,2.144187 8.16182,4.543203 9.59873,5.331149 1.4369,0.787946 5.12338,3.120256 8.19218,5.182912 3.06879,2.062654 5.81965,3.750283 6.11304,3.750283 0.52284,0 3.38938,-1.966681 9.28481,-6.370118 5.40481,-4.036981 6.38403,-4.20521 8.81501,-1.514402 2.88025,3.188085 1.66045,5.759424 -6.385,13.45977 -7.09685,6.792416 -9.23728,7.342815 -16.09286,4.13817 -2.20291,-1.029746 -4.65313,-1.9774 -5.44496,-2.105897 -1.3361,-0.216818 -1.59599,-0.08074 -3.61171,1.891278 -2.4327,2.379926 -4.46815,5.117432 -4.46815,6.009282 0,0.771637 2.0428,0.974041 11.82073,1.171218 8.59851,0.173393 10.14431,0.528993 11.20351,2.577268 1.88828,3.651498 -0.97842,28.544937 -3.96901,34.465927 -1.33253,2.63817 -3.30807,3.83489 -5.29149,3.20537 -1.84303,-0.58496 -2.02886,-2.14879 -1.72716,-14.53493 0.24195,-9.933301 0.19709,-11.65725 -0.33639,-12.92561 -0.66401,-1.578731 -1.8815,-2.160851 -3.61132,-1.726695 -1.65277,0.414818 -1.90291,1.534273 -2.20962,9.888665 -0.3299,8.98543 -0.84418,11.40173 -3.6901,17.33705 -2.59167,5.40514 -2.43761,5.29589 -4.81682,3.41523 z"
   id="path4" /><path
   style="fill:#2b0000;stroke-width:0.394025"
   d="m 128.06701,59.019336 c -1.95042,-1.2156 -3.57978,-2.236159 -3.62078,-2.267902 -0.30068,-0.232741 -1.30394,-6.342005 -1.30419,-7.941774 -5.2e-4,-3.170712 2.41882,-6.359192 7.05719,-9.30076 2.27704,-1.444055 3.99597,-1.439269 6.53632,0.0182 2.34501,1.345419 5.57668,4.682035 5.94112,6.134061 0.47095,1.8764 -2.73128,9.375617 -4.82035,11.288645 -1.6497,1.510704 -5.471,4.293999 -5.88488,4.28634 -0.19702,-0.0036 -1.95401,-1.001213 -3.90443,-2.216815 z"
   id="path6" /><path
   style="fill:#240f2e;fill-opacity:1;stroke-width:0.197011"
   d="m 92.285071,136.09572 c -12.172893,-2.55785 -21.081514,-11.3046 -23.513592,-23.08635 -1.411999,-6.84018 0.196017,-15.257577 3.999939,-20.938281 1.506349,-2.249552 1.627914,-2.361401 2.255901,-2.075594 2.233149,1.016343 5.043911,3.593893 5.277632,4.83974 0.224058,1.194328 -0.05895,4.158801 -0.62047,6.499495 -0.686266,2.86065 -0.852771,6.70106 -0.402739,9.28905 0.706595,4.06339 2.346938,7.26936 5.126608,10.01969 2.007604,1.98644 3.5995,3.00412 5.93086,3.79156 1.511704,0.51057 1.741092,0.53216 5.614842,0.52831 3.775104,-0.003 6.071698,-0.20832 11.048918,-0.98419 0.65617,-0.10231 0.85808,0.012 2.87147,1.62557 1.19114,0.95457 2.88378,2.35618 3.76144,3.11468 l 1.59574,1.37907 -0.52696,0.5575 c -1.24953,1.32185 -5.23301,3.53203 -8.34578,4.63054 -2.39813,0.8463 -5.19652,1.21758 -9.051027,1.20086 -2.377922,-0.0109 -3.697684,-0.11327 -5.022782,-0.39165 z"
   id="path10" /><path
   style="fill:#240f2e;fill-opacity:1;stroke-width:0.394025"
   d="m 108.68308,223.00239 c -1.89212,-0.82286 -4.44948,-3.35581 -8.726663,-8.64346 C 88.326479,199.98154 61.311453,163.23882 49.335372,145.51002 37.156739,127.48139 32.247411,116.96432 28.869602,101.66698 28.053023,97.968868 27.991217,96.709169 27.988175,83.702151 27.984552,68.125419 28.16342,66.613021 31.203957,56.514493 38.044438,33.795193 53.17159,17.639101 76.18988,8.4686475 c 24.25074,-9.6614643 56.60924,-7.98592265 80.49692,4.1681785 5.6536,2.87656 9.48586,5.820425 15.12762,11.620769 14.19357,14.592535 21.40447,29.286918 23.41093,47.706812 0.5316,4.880186 0.53953,18.820565 0.0132,23.174776 -1.44916,11.988387 -6.08929,24.264767 -14.38304,38.053157 -7.10926,11.8192 -25.10364,37.76298 -46.02176,66.35288 -11.90203,16.26713 -16.58377,21.71931 -20.07117,23.37418 -1.67644,0.79552 -4.35689,0.83212 -6.07948,0.083 z m 13.93955,-75.2856 c 9.95167,-1.7088 20.14351,-6.54535 29.15496,-13.83553 6.92941,-5.60584 12.35958,-12.06758 15.67871,-18.65719 6.41975,-12.74538 8.67741,-27.150135 6.26162,-39.951363 C 171.77798,64.993023 165.85648,53.196144 158.2088,44.375285 149.72886,34.594477 137.64293,27.514058 124.65315,24.71706 120.0151,23.71838 104.81979,23.724191 99.787943,24.726501 91.752336,26.32725 83.418381,29.935412 76.646873,34.745359 74.588098,36.207752 70.863188,39.443331 68.3693,41.935531 48.708937,61.582584 44.116691,89.095158 56.309968,114.1841 c 3.019476,6.21289 6.063619,10.75892 10.863358,16.22302 6.395543,7.28076 12.872462,14.00194 14.016062,14.54461 0.855803,0.4061 4.199614,0.93842 8.951922,1.42508 4.172218,0.42726 9.97955,1.12227 12.90516,1.54446 6.09604,0.87971 13.7259,0.79998 19.57616,-0.20455 z"
   id="path11" /><path
   style="fill:#240f2e;fill-opacity:1;stroke-width:0.278616"
   d="m 93.301219,136.17653 c -1.757355,-0.27965 -4.25472,-1.01614 -6.457393,-1.90433 -9.778668,-3.94307 -16.746417,-12.7273 -18.219676,-22.96948 -0.652879,-4.53886 0.212654,-10.58847 2.187342,-15.288366 1.098673,-2.614925 3.301316,-5.906584 3.952438,-5.906584 0.545309,0 3.387334,2.008687 4.378913,3.094928 1.078045,1.180962 1.249038,2.059868 0.937968,4.821147 -0.156889,1.392636 -0.419959,2.970885 -0.584603,3.507225 -0.164645,0.53633 -0.371668,2.48975 -0.460054,4.34092 -0.298842,6.25909 1.322777,10.75761 5.318124,14.75296 4.009457,4.00945 6.822473,4.82889 14.797907,4.31064 2.298575,-0.14937 4.931515,-0.39796 5.850945,-0.55244 0.91944,-0.15448 1.93405,-0.28159 2.25472,-0.28248 0.59143,-10e-4 7.63619,5.63089 7.63619,6.1054 0,0.87615 -7.22419,4.70916 -10.30883,5.46966 -1.7912,0.4416 -9.504748,0.78395 -11.283991,0.5008 z"
   id="path12" /><path
   style="fill:#240f2e;fill-opacity:1;stroke-width:0.278616"
   d="m 117.68655,124.49656 c -1.445,-1.23342 -2.84992,-2.81347 -3.38231,-3.80388 -0.18033,-0.33547 0.0783,-1.78582 0.85521,-4.79564 1.38643,-5.37119 1.80198,-8.63281 1.58184,-12.41564 -0.1523,-2.61729 -0.27689,-3.14244 -1.18271,-4.984798 -1.87171,-3.80694 -6.47105,-7.919314 -10.74335,-9.605892 -4.25646,-1.680325 -7.536752,-1.624817 -14.182547,0.239997 -4.395569,1.233399 -5.372773,1.247194 -6.958865,0.09824 -1.523005,-1.10326 -3.885527,-3.549362 -3.885527,-4.022987 0,-0.196326 1.661255,-1.259961 3.691675,-2.363632 10.37227,-5.638023 13.567198,-7.969783 19.549884,-14.268113 4.19461,-4.415917 5.17738,-5.632632 5.17738,-6.409802 0,-0.679726 -1.19186,-1.786033 -3.81245,-3.538791 -3.33196,-2.228548 -4.19559,-2.033364 -9.641039,2.178918 -3.706462,2.8671 -5.39757,3.715916 -7.739618,3.884737 -2.939787,0.211909 -4.225493,-0.802912 -4.614691,-3.642422 -0.217788,-1.588936 0.472901,-2.941787 2.738294,-5.3635 3.354204,-3.585655 10.48696,-8.853625 13.355434,-9.863794 1.139343,-0.401235 1.63082,-0.440915 2.5665,-0.207219 2.95582,0.738245 20.88289,10.517126 29.85486,16.285264 7.43487,4.779924 7.0188,4.527718 7.4695,4.527718 0.39642,0 3.77456,-2.314301 9.41835,-6.452354 3.44412,-2.52525 5.22801,-3.429074 6.19702,-3.1398 0.32868,0.0981 1.1963,0.759031 1.92808,1.468704 3.14903,3.053914 2.30101,5.265716 -4.6732,12.188359 -8.08694,8.027149 -9.93976,8.633921 -17.08721,5.595825 -5.65901,-2.405418 -6.21268,-2.557156 -7.29268,-1.99866 -1.12165,0.580023 -5.40186,5.206438 -6.07435,6.565678 -1.03827,2.098522 -0.98285,2.111924 10.2538,2.479442 4.36733,0.142842 8.58183,0.3983 9.36555,0.567684 1.70515,0.368524 2.828,1.412298 3.1879,2.963408 0.81843,3.527208 -0.26393,16.69565 -2.12981,25.91255 -1.55342,7.6735 -3.33525,10.68305 -6.32671,10.686 -1.47136,0.001 -2.30374,-0.88896 -2.55779,-2.73613 -0.10849,-0.78873 -0.15438,-6.48233 -0.10198,-12.65242 0.0879,-10.347073 0.0564,-11.296346 -0.40494,-12.222823 -1.22287,-2.455773 -4.76609,-2.282132 -5.31586,0.260524 -0.0884,0.409181 -0.35488,3.99949 -0.59203,7.978479 -0.52345,8.7831 -0.98701,11.26154 -2.93129,15.67268 -1.93084,4.38067 -2.98585,6.20828 -3.58378,6.20828 -0.26607,0 -1.15552,-0.57337 -1.97653,-1.27419 z"
   id="path18" /><path
   style="fill:#240f2e;fill-opacity:1;stroke-width:0.278616"
   d="m 128.07508,58.903014 -3.65003,-2.228581 -0.446,-2.438254 c -1.07425,-5.873131 -0.90996,-7.361063 1.11686,-10.114301 1.25875,-1.709891 4.57287,-4.404959 6.30854,-5.130172 1.50404,-0.628431 2.96053,-0.528486 4.66321,0.319992 1.63042,0.812477 5.37569,4.190545 6.01349,5.423914 0.8491,1.641972 0.22739,4.296305 -2.03281,8.679055 -0.96379,1.868865 -1.67076,2.81486 -2.97037,3.974691 -1.64007,1.463632 -4.78731,3.742238 -5.16887,3.742238 -0.10121,0 -1.8265,-1.002862 -3.83402,-2.228582 z"
   id="path19" /></svg>
